<?xml version="1.0" encoding="UTF-8" standalone="no"?>
<!-- Created with Inkscape (http://www.inkscape.org/) -->

<svg
   width="4096"
   height="2304"
   viewBox="0 0 4096 2304"
   version="1.1"
   id="svg5"
   inkscape:version="1.2.2 (732a01da63, 2022-12-09)"
   sodipodi:docname="banner_crop.svg"
   xml:space="preserve"
   inkscape:export-filename="banner_crop.png"
   inkscape:export-xdpi="96"
   inkscape:export-ydpi="96"
   xmlns:inkscape="http://www.inkscape.org/namespaces/inkscape"
   xmlns:sodipodi="http://sodipodi.sourceforge.net/DTD/sodipodi-0.dtd"
   xmlns:xlink="http://www.w3.org/1999/xlink"
   xmlns="http://www.w3.org/2000/svg"
   xmlns:svg="http://www.w3.org/2000/svg"
   xmlns:rdf="http://www.w3.org/1999/02/22-rdf-syntax-ns#"
   xmlns:cc="http://creativecommons.org/ns#"
   xmlns:dc="http://purl.org/dc/elements/1.1/"><sodipodi:namedview
     id="namedview7"
     pagecolor="#b4b4b4"
     bordercolor="#000000"
     borderopacity="0"
     inkscape:showpageshadow="2"
     inkscape:pageopacity="0"
     inkscape:pagecheckerboard="true"
     inkscape:deskcolor="#7d7d7d"
     inkscape:document-units="px"
     showgrid="true"
     guidecolor="#0000ff"
     guideopacity="0.50196078"
     inkscape:zoom="1.5"
     inkscape:cx="237.66667"
     inkscape:cy="234.33333"
     inkscape:window-width="1620"
     inkscape:window-height="1010"
     inkscape:window-x="-6"
     inkscape:window-y="-6"
     inkscape:window-maximized="1"
     inkscape:current-layer="layer1"><sodipodi:guide
       position="0,2304"
       orientation="0,4096"
       id="guide1"
       inkscape:locked="false" /><sodipodi:guide
       position="4096,2304"
       orientation="2304,0"
       id="guide2"
       inkscape:locked="false" /><sodipodi:guide
       position="4096,0"
       orientation="0,-4096"
       id="guide3"
       inkscape:locked="false" /><sodipodi:guide
       position="0,0"
       orientation="-2304,0"
       id="guide4"
       inkscape:locked="false" /></sodipodi:namedview><defs
     id="defs2"><rect
       x="1002.806"
       y="774.60333"
       width="1555.6349"
       height="324.62631"
       id="rect568" /><color-profile
       name="sRGB"
       xlink:href="../../../WINDOWS/system32/spool/drivers/color/SurfacesRGB.icm"
       id="color-profile1" /><filter
       style="color-interpolation-filters:sRGB"
       inkscape:label="Drop Shadow"
       id="filter1661"
       x="-0.0041614415"
       y="-0.015099418"
       width="1.0083229"
       height="1.0301988"><feFlood
         flood-opacity="1"
         flood-color="rgb(0,0,0)"
         result="flood"
         id="feFlood1651" /><feComposite
         in="flood"
         in2="SourceGraphic"
         operator="in"
         result="composite1"
         id="feComposite1653" /><feGaussianBlur
         in="composite1"
         stdDeviation="4"
         result="blur"
         id="feGaussianBlur1655" /><feOffset
         dx="0"
         dy="0"
         result="offset"
         id="feOffset1657" /><feComposite
         in="SourceGraphic"
         in2="offset"
         operator="over"
         result="composite2"
         id="feComposite1659" /></filter></defs><metadata
     id="metadata390"><rdf:RDF><cc:Work
         rdf:about=""><dc:creator><cc:Agent><dc:title>DYLAN GREGORI SINGER</dc:title></cc:Agent></dc:creator><dc:language>EN-US</dc:language></cc:Work></rdf:RDF></metadata><g
     id="g5"
     transform="matrix(1.4648437,0,0,1.4648437,-951.9999,-535.49994)"
     style="stroke-width:0.682667"><g
       id="layer5"
       inkscape:label="FULL"
       style="stroke-width:0.682667;filter:url(#filter1661)"><g
         inkscape:groupmode="layer"
         id="layer7"
         inkscape:label="WEAR OS"
         transform="matrix(0.42072462,0,0,0.42072462,1317.2829,599.05143)"
         style="stroke-width:0;stroke-dasharray:none"><g
           id="Layer1002"
           transform="matrix(1.9164663,0,0,1.9164663,355.8838,1083.2567)"
           inkscape:label="LOGO"
           style="stroke-width:0;stroke-dasharray:none"><path
             d="m 220.1376,302.9365 c 7.7685,-3.24 16.7391,0.3212 20.0366,7.9541 L 274.795,391.03 c 3.2975,7.633 -0.3269,16.4472 -8.0953,19.6873 -7.7684,3.24 -16.7391,-0.3212 -20.0366,-7.9542 l -34.6207,-80.1394 c -3.2975,-7.633 0.3268,-16.4473 8.0952,-19.6872 z"
             style="fill:#5484f8;fill-rule:evenodd;stroke-width:0;stroke-dasharray:none"
             id="path2115"
             transform="translate(-5.9442334e-5)"
             inkscape:label="BLUE" /><path
             d="m 269.3754,302.9365 c 7.7683,-3.24 16.739,0.3212 20.0365,7.9541 l 34.6208,80.1394 c 3.2975,7.633 -0.3269,16.4472 -8.0953,19.6873 -7.7684,3.24 -16.7391,-0.3212 -20.0366,-7.9542 L 261.28,322.6237 c -3.2974,-7.633 0.327,-16.4473 8.0954,-19.6872 z"
             style="fill:#f2bd00;fill-rule:evenodd;stroke-width:0;stroke-dasharray:none"
             id="path2117"
             transform="translate(-5.9442334e-5)"
             inkscape:label="YELLOW" /><path
             d="m 367.3618,317.466 a 16.1296,15.8482 0 0 1 -16.1295,15.8482 16.1296,15.8482 0 1 1 16.1295,-15.8482 z"
             style="fill:#da482f;fill-rule:evenodd;stroke-width:0;stroke-dasharray:none"
             id="path2119"
             transform="translate(-5.9442334e-5)"
             inkscape:label="RED" /><path
             d="m 352.0799,352.5015 a 16.1296,15.8482 0 0 1 -16.1296,15.8482 16.1296,15.8482 0 1 1 16.1296,-15.8482 z"
             style="fill:#54a74c;fill-rule:evenodd;stroke-width:0;stroke-dasharray:none"
             id="path2121"
             transform="translate(-5.9442334e-5)"
             inkscape:label="GREEN" /></g><g
           id="Layer1000"
           transform="matrix(1.8574863,0,0,1.8574864,1185.1802,846.48109)"
           inkscape:label="TEXT"
           style="stroke-width:0;stroke-dasharray:none"><path
             d="M 55.7249,476.7191 43.1655,524.3278 H 36.9843 L 26.858,492.9433 H 26.5949 L 16.4683,524.3278 H 10.2874 L -2.7984,476.7191 h 6.3126 l 9.9295,37.4354 h 0.263 l 10.1922,-31.0521 h 5.6549 l 10.1924,31.0521 h 0.263 l 9.4031,-37.4354 z m 14.7041,48.6727 c -9.8633,0 -16.439,-7.5136 -16.439,-17.3546 0,-9.2425 6.3127,-17.3545 15.7816,-17.3545 9.6003,0 15.7815,6.8486 15.7815,17.3545 0,0.4654 -0.0658,1.1304 -0.0658,1.1304 H 60.0396 c 0.3286,6.9152 5.2605,10.6389 10.258,10.6389 3.5507,0 7.1017,-1.463 8.8112,-5.5856 l 5.3922,2.2609 c -1.907,4.6544 -6.6415,8.91 -14.072,8.91 z m 8.6798,-21.2776 c -0.1972,-2.8592 -2.5644,-7.8462 -9.4689,-7.8462 -4.4714,0 -8.0221,3.0586 -9.2059,7.8462 z m 21.4772,21.2776 c -6.5756,0 -12.0336,-4.1226 -12.0336,-10.9049 0,-7.3806 6.5756,-11.3703 14.1378,-11.3703 4.3398,0 7.4961,1.2634 8.7454,1.995 v -0.931 c 0,-4.9203 -3.8795,-7.9126 -8.4168,-7.9126 -3.3535,0 -6.5756,1.6623 -7.6933,4.721 l -5.5235,-2.3937 c 1.1176,-2.9923 4.9975,-7.9126 13.0854,-7.9126 7.8908,0 14.3348,4.7873 14.3348,13.9633 v 19.6818 h -5.7866 v -4.5213 h -0.263 c -1.7754,2.726 -5.063,5.5853 -10.5866,5.5853 z m 0.9863,-5.5853 c 4.8003,0 9.8633,-4.1893 9.8633,-9.5086 0,0 -2.5644,-2.1277 -7.6933,-2.1277 -6.3784,0 -8.8773,3.4577 -8.8773,6.4497 0,3.4576 3.551,5.1866 6.7073,5.1866 z m 27.5265,4.5213 v -17.8199 c 0,-5.9843 4.2084,-9.5086 8.3513,-9.5086 1.3151,0 2.3672,0.133 3.2218,0.4657 l 2.3017,-5.7186 c -1.2496,-0.5317 -2.5647,-0.7977 -4.5373,-0.7977 -3.3535,0 -8.0224,2.3936 -9.3375,6.1173 h -0.263 v -5.3196 h -5.7866 v 32.5814 z m 51.8969,1.064 c -13.8745,0 -24.1983,-11.0379 -24.1983,-24.8682 0,-13.7639 10.3238,-24.8682 24.1983,-24.8682 13.809,0 24.1984,11.1043 24.1984,24.8682 0,13.8303 -10.3894,24.8682 -24.1984,24.8682 z m 0,-5.8513 c 9.9295,0 18.0174,-7.7133 18.0174,-19.0169 0,-11.3039 -8.0879,-19.0169 -18.0174,-19.0169 -9.9291,0 -18.0171,7.713 -18.0171,19.0169 0,11.3036 8.088,19.0169 18.0171,19.0169 z m 43.6372,5.8513 c 7.233,0 15.7157,-4.1226 15.7157,-13.7639 0,-9.6416 -7.4964,-12.9662 -15.3871,-15.4929 -5.3919,-1.7953 -8.9429,-3.9896 -8.9429,-7.7796 0,-3.9897 3.8798,-6.8487 8.4168,-6.8487 5.3922,0 8.2854,3.5907 8.9429,6.1173 l 5.5235,-2.3273 c -1.1835,-3.79 -5.7207,-9.6413 -14.5978,-9.6413 -8.877,0 -14.4664,6.1837 -14.4664,12.7 0,6.7823 4.7345,10.7052 12.6911,13.2319 7.2989,2.2609 11.6386,4.5216 11.6386,10.1736 0,5.0533 -4.6028,7.7796 -9.5344,7.7796 -5.195,0 -9.6006,-4.1893 -10.9157,-9.309 l -5.5235,2.2607 c 2.17,8.777 10.3238,12.8996 16.4392,12.8996 z m 51.5023,0 c -5.1289,0 -9.1401,-2.5933 -10.9813,-5.5853 h -0.263 v 4.5213 h -5.7866 v -47.6087 h 6.0496 v 15.0273 l -0.263,4.5216 h 0.263 c 1.8412,-2.9923 5.8524,-5.5853 10.9813,-5.5853 8.1537,0 15.3213,7.3806 15.3213,17.3545 0,9.974 -7.1676,17.3546 -15.3213,17.3546 z m -0.9863,-5.5853 c 5.3919,0 10.258,-4.4553 10.258,-11.7693 0,-7.3142 -4.8661,-11.7692 -10.258,-11.7692 -5.3922,0 -10.258,4.322 -10.258,11.7692 0,7.447 4.8658,11.7693 10.258,11.7693 z m 28.1183,18.8839 h -6.2467 l 7.496,-16.4239 -13.2826,-30.5201 h 6.5756 l 9.6003,23.4055 h 0.1317 l 9.3372,-23.4055 h 6.5757 z"
             style="fill:#ffffff;fill-opacity:1;fill-rule:evenodd;stroke-width:0;stroke-dasharray:none"
             id="path2105"
             transform="translate(5.6015348e-5,-7.6105779e-5)"
             inkscape:label="WEAR OS BY" /><path
             d="m 369.9306,524.3278 c -15.1627,0 -27.902,-12.6303 -27.902,-28.1313 0,-15.5012 12.7393,-28.1316 27.902,-28.1316 8.3944,0 14.3649,3.3541 18.8574,7.7656 l -5.2907,5.4089 c -3.2216,-3.0821 -7.5962,-5.4995 -13.5667,-5.4995 -11.0838,0 -19.7442,9.1255 -19.7442,20.4566 0,11.3311 8.6604,20.4564 19.7442,20.4564 7.1826,0 11.2612,-2.9613 13.892,-5.6201 2.1576,-2.206 3.5467,-5.3485 4.0789,-9.6694 h -17.9709 v -7.7052 h 25.3011 c 0.266,1.3597 0.4136,3.0217 0.4136,4.8044 0,5.7714 -1.5369,12.9025 -6.5025,17.9788 -4.8473,5.1367 -10.9953,7.8864 -19.2122,7.8864 z m 66.1801,-17.9019 c 0,10.3109 -7.9379,17.9019 -17.7036,17.9019 -9.7654,0 -17.7036,-7.591 -17.7036,-17.9019 0,-10.3705 7.9382,-17.9017 17.7036,-17.9017 9.7657,0 17.7036,7.5312 17.7036,17.9017 z m -7.7583,0 c 0,-6.4553 -4.613,-10.8485 -9.9453,-10.8485 -5.332,0 -9.9451,4.4231 -9.9451,10.8485 0,6.3658 4.6131,10.8488 9.9451,10.8488 5.3323,0 9.9453,-4.4531 9.9453,-10.8488 z m 46.2005,0 c 0,10.3109 -7.9379,17.9019 -17.7036,17.9019 -9.7355,0 -17.7036,-7.591 -17.7036,-17.9019 0,-10.3705 7.9382,-17.9017 17.7036,-17.9017 9.7657,0 17.7036,7.5312 17.7036,17.9017 z m -7.7283,0 c 0,-6.4553 -4.6131,-10.8485 -9.9454,-10.8485 -5.332,0 -9.945,4.4231 -9.945,10.8485 0,6.3658 4.613,10.8488 9.945,10.8488 5.3323,0.0299 9.9454,-4.4531 9.9454,-10.8488 z m 46.1705,-16.8123 v 31.6842 c 0,13.0447 -7.8131,18.3745 -17.0629,18.3745 -8.7112,0 -13.9199,-5.742 -15.8957,-10.4239 l 6.8552,-2.7975 c 1.2274,2.8857 4.2208,6.2721 9.0405,6.2721 5.9271,0 9.5792,-3.6219 9.5792,-10.365 v -2.5324 h -0.2695 c -1.7662,2.1496 -5.1787,4.0045 -9.4594,4.0045 -8.9807,0 -17.183,-7.6855 -17.183,-17.5793 0,-9.9529 8.2323,-17.7266 17.183,-17.7266 4.2807,0 7.6932,1.8847 9.4594,3.9457 h 0.2695 v -2.8563 z m -6.9449,16.6666 c 0,-6.213 -4.2209,-10.7773 -9.5793,-10.7773 -5.4483,0 -9.9982,4.5348 -9.9982,10.7773 0,6.1543 4.5499,10.63 9.9982,10.63 5.3584,0 9.5793,-4.4757 9.5793,-10.63 z"
             style="fill:#ffffff;fill-opacity:1;fill-rule:evenodd;stroke-width:0;stroke-dasharray:none"
             id="path2107"
             transform="translate(5.6015348e-5,-7.6105779e-5)"
             inkscape:label="GOOG" /><path
             d="m 525.1331,470.1117 v 52.1713 h -7.0814 v -52.1713 z"
             style="fill:#ffffff;fill-opacity:1;fill-rule:evenodd;stroke-width:0;stroke-dasharray:none"
             id="path2109"
             transform="translate(5.6015348e-5,-7.6105779e-5)"
             inkscape:label="L" /><path
             d="m 556.2209,512.3136 6.0199,4.0646 c -1.9478,2.9287 -6.6396,7.9496 -14.7548,7.9496 -10.063,0 -17.2931,-7.86 -17.2931,-17.9019 0,-10.6395 7.3186,-17.9017 16.4371,-17.9017 9.1776,0 13.663,7.3818 15.1387,11.3865 l 0.7966,2.0324 -23.6372,9.9222 c 1.7999,3.5863 4.633,5.4393 8.5873,5.4393 3.9543,0 6.6986,-2.0025 8.7055,-4.991 z m -18.5618,-6.4553 15.8174,-6.635 c -0.8854,-2.2412 -3.4822,-3.7954 -6.5808,-3.7954 -3.9543,0 -9.4433,3.5265 -9.2366,10.4304 z"
             style="fill:#ffffff;fill-opacity:1;fill-rule:evenodd;stroke-width:0;stroke-dasharray:none"
             id="path2111"
             transform="translate(5.6015348e-5,-7.6105779e-5)"
             inkscape:label="E" /></g></g><text
         xml:space="preserve"
         style="font-style:normal;font-variant:normal;font-weight:normal;font-stretch:normal;font-size:53.3333px;font-family:pro;-inkscape-font-specification:pro;white-space:pre;inline-size:1104.68;display:inline;fill:#ffffff;stroke:none;stroke-width:0;stroke-linecap:round;stroke-linejoin:round;stroke-dasharray:none"
         x="1004.3857"
         y="1364.545"
         id="text3576"
         inkscape:label="SUBTEXT"
         transform="translate(14.121902,0.06826637)"><tspan
           x="1004.3857"
           y="1364.545"
           id="tspan6"><tspan
             style="font-family:'Product Sans';-inkscape-font-specification:'Product Sans'"
             id="tspan1">designer watch faces for</tspan></tspan></text><g
         inkscape:groupmode="layer"
         id="g969"
         inkscape:label="WORDMARK"
         transform="matrix(1.3918917,0,0,1.3918917,1287.0059,751.39768)"
         style="stroke-width:0;stroke-dasharray:none"><text
           xml:space="preserve"
           transform="matrix(0.7184467,0,0,0.7184467,-1036.9554,-390.86401)"
           id="text566"
           style="font-weight:bold;font-size:200px;font-family:Poggers;-inkscape-font-specification:'Poggers Bold';text-align:center;white-space:pre;shape-inside:url(#rect568);display:inline;fill:#ffffff;fill-opacity:1;stroke-width:0;stroke-linecap:round;stroke-linejoin:round"><tspan
             x="1012.5237"
             y="997.0427"
             id="tspan8"><tspan
               dx="0 0 0 0 0 0 0 0 -0.00010681152"
               id="tspan7">WEAR.HAUS</tspan></tspan></text></g><g
         inkscape:groupmode="layer"
         id="layer2"
         inkscape:label="CLOCK"
         transform="translate(44.000051,3.3006867e-5)"
         style="display:inline;stroke-width:0.682667"><g
           inkscape:groupmode="layer"
           id="layer3-3"
           inkscape:label="INDEX"
           style="display:inline;stroke-width:0.812851"
           transform="matrix(-1.3788301,0,0,1.3788301,3154.1294,797.87042)"><circle
             style="display:inline;fill:#ffffff;fill-opacity:1;stroke:none;stroke-width:0;stroke-linecap:round;stroke-linejoin:round;stroke-dasharray:none;stroke-opacity:1"
             id="circle1737"
             cx="307.39609"
             cy="-103.57437"
             inkscape:label="01"
             r="3"
             transform="matrix(-1.0345312,0.59728683,0.59728683,1.0345312,525.61244,-11.945738)" /><circle
             style="display:inline;fill:#ffffff;fill-opacity:1;stroke:none;stroke-width:0;stroke-linecap:round;stroke-linejoin:round;stroke-dasharray:none;stroke-opacity:1"
             id="circle1749"
             cx="307.31537"
             cy="-268.2858"
             inkscape:label="02"
             r="3"
             transform="matrix(-0.59728687,1.0345312,1.0345312,0.59728687,525.61244,-11.945738)" /><circle
             style="display:inline;fill:#ffffff;fill-opacity:1;stroke:none;stroke-width:0;stroke-linecap:round;stroke-linejoin:round;stroke-dasharray:none;stroke-opacity:1"
             id="ellipse1056-8"
             cx="256.83334"
             cy="34.64257"
             transform="matrix(2.6553847e-7,1,1,2.3566976e-7,3.6987879e-5,-2.1807379e-6)"
             inkscape:label="03"
             r="8.3620157" /><circle
             style="display:inline;fill:#ffffff;fill-opacity:1;stroke:none;stroke-width:0;stroke-linecap:round;stroke-linejoin:round;stroke-dasharray:none;stroke-opacity:1"
             id="circle1731"
             cx="82.396111"
             cy="-493.28583"
             transform="matrix(0.59728685,1.0345312,1.0345312,-0.59728685,525.61244,-11.945738)"
             inkscape:label="04"
             r="3" /><circle
             style="display:inline;fill:#ffffff;fill-opacity:1;stroke:none;stroke-width:0;stroke-linecap:round;stroke-linejoin:round;stroke-dasharray:none;stroke-opacity:1"
             id="circle1743"
             cx="-82.396103"
             cy="-493.28583"
             transform="matrix(1.0345312,0.59728685,0.59728685,-1.0345312,525.61244,-11.945738)"
             inkscape:label="05"
             r="3" /><circle
             style="display:inline;fill:#ffffff;fill-opacity:1;stroke:none;stroke-width:0;stroke-linecap:round;stroke-linejoin:round;stroke-dasharray:none;stroke-opacity:1"
             id="ellipse1050-6"
             cx="-256.83255"
             cy="-479.02365"
             transform="matrix(-1,-1.6560566e-6,-1.6859197e-6,-1,3.6987879e-5,-2.1807379e-6)"
             inkscape:label="06"
             r="8.3620157" /><circle
             style="display:inline;fill:#ffffff;fill-opacity:1;stroke:none;stroke-width:0;stroke-linecap:round;stroke-linejoin:round;stroke-dasharray:none;stroke-opacity:1"
             id="circle1733"
             cx="307.3158"
             cy="-268.28632"
             transform="matrix(-1.0345322,0.59728513,-0.59728859,-1.0345301,525.61244,-11.945738)"
             inkscape:label="07"
             r="3" /><circle
             style="display:inline;fill:#ffffff;fill-opacity:1;stroke:none;stroke-width:0;stroke-linecap:round;stroke-linejoin:round;stroke-dasharray:none;stroke-opacity:1"
             id="circle1745"
             cx="307.39624"
             cy="-103.57488"
             transform="matrix(-0.59728857,1.0345301,-1.0345322,-0.59728512,525.61244,-11.945738)"
             inkscape:label="08"
             r="3" /><circle
             style="display:inline;fill:#ffffff;fill-opacity:1;stroke:none;stroke-width:0;stroke-linecap:round;stroke-linejoin:round;stroke-dasharray:none;stroke-opacity:1"
             id="ellipse1044-9"
             cx="256.83252"
             cy="-479.02365"
             transform="matrix(1.7528896e-6,1,-1,-1.7230258e-6,3.6987879e-5,-2.1807379e-6)"
             inkscape:label="09"
             r="8.3620157" /><circle
             style="display:inline;fill:#ffffff;fill-opacity:1;stroke:none;stroke-width:0;stroke-linecap:round;stroke-linejoin:round;stroke-dasharray:none;stroke-opacity:1"
             id="circle1735"
             cx="82.315559"
             cy="121.42577"
             transform="matrix(0.59728865,1.0345301,-1.0345322,0.59728506,525.61244,-11.945738)"
             inkscape:label="10"
             r="3" /><circle
             style="display:inline;fill:#ffffff;fill-opacity:1;stroke:none;stroke-width:0;stroke-linecap:round;stroke-linejoin:round;stroke-dasharray:none;stroke-opacity:1"
             id="circle1747"
             cx="-82.315147"
             cy="121.42548"
             transform="matrix(1.0345322,0.59728505,-0.59728865,1.0345301,525.61244,-11.945738)"
             inkscape:label="11"
             r="3" /><circle
             style="display:inline;fill:#ffffff;fill-opacity:1;stroke:none;stroke-width:0;stroke-linecap:round;stroke-linejoin:round;stroke-dasharray:none;stroke-opacity:1"
             id="ellipse1062-2"
             cx="-256.83328"
             cy="34.642212"
             transform="matrix(-1,-1.6560568e-6,1.6859195e-6,1,3.6987879e-5,-2.1807379e-6)"
             inkscape:label="12"
             r="8.3620157" /></g><rect
           style="display:inline;fill:#ffffff;fill-opacity:1;stroke:#ffffff;stroke-width:0.961386;stroke-linecap:round;stroke-linejoin:round;stroke-dasharray:none;stroke-opacity:1"
           id="rect4152"
           width="0.59170294"
           height="178.59172"
           x="-225.29593"
           y="-224.29587"
           transform="matrix(-1.2679491,-0.73205077,0.73205075,-1.2679491,2679.4228,702.00001)"
           inkscape:label="MINUTE" /><rect
           style="display:inline;fill:#ffffff;fill-opacity:1;stroke:#ffffff;stroke-width:1.76465;stroke-linecap:round;stroke-linejoin:round;stroke-dasharray:none;stroke-opacity:1"
           id="rect6045"
           width="2.4150734"
           height="147.41507"
           x="-226.20755"
           y="-223.70753"
           transform="matrix(-0.73205075,1.2679491,-1.2679491,-0.73205077,2349.9999,1272.5771)"
           inkscape:label="HOUR" /></g></g><g
       id="g1992"
       transform="matrix(0.48828125,0,0,0.48828125,2719,1136.1113)"
       style="stroke-width:1.39809"><text
         xml:space="preserve"
         style="font-size:100px;font-family:'Noto Sans';-inkscape-font-specification:'Noto Sans';text-align:center;text-anchor:middle;fill:#ffffff;fill-opacity:1;stroke:none;stroke-width:0;stroke-linecap:round;stroke-linejoin:round;stroke-dasharray:none"
         x="256.00006"
         y="265.60001"
         id="text795"><tspan
           sodipodi:role="line"
           id="tspan793"
           x="256.00006"
           y="265.60001"
           style="font-style:normal;font-variant:normal;font-weight:bold;font-stretch:normal;font-size:100px;font-family:Poggers;-inkscape-font-specification:'Poggers Bold';text-align:center;text-anchor:middle;fill:#ffffff;fill-opacity:1;stroke:none;stroke-width:0;stroke-dasharray:none">.</tspan></text><text
         xml:space="preserve"
         style="font-size:100px;font-family:'Noto Sans';-inkscape-font-specification:'Noto Sans';text-align:center;text-anchor:middle;fill:#ffffff;fill-opacity:1;stroke:none;stroke-width:0;stroke-linecap:round;stroke-linejoin:round;stroke-dasharray:none"
         x="164.70003"
         y="265.70001"
         id="text1972"><tspan
           sodipodi:role="line"
           id="tspan1970"
           x="164.70003"
           y="265.70001"
           style="font-style:normal;font-variant:normal;font-weight:bold;font-stretch:normal;font-size:100px;font-family:Poggers;-inkscape-font-specification:'Poggers Bold';text-align:center;text-anchor:middle;fill:#ffffff;fill-opacity:1;stroke:none;stroke-width:0;stroke-dasharray:none">W</tspan></text><text
         xml:space="preserve"
         style="font-size:100px;font-family:'Noto Sans';-inkscape-font-specification:'Noto Sans';text-align:center;text-anchor:middle;fill:#ffffff;fill-opacity:1;stroke:none;stroke-width:0;stroke-linecap:round;stroke-linejoin:round;stroke-dasharray:none"
         x="336.89999"
         y="265.70001"
         id="text1976"><tspan
           sodipodi:role="line"
           id="tspan1974"
           x="336.89999"
           y="265.70001"
           style="font-style:normal;font-variant:normal;font-weight:bold;font-stretch:normal;font-size:100px;font-family:Poggers;-inkscape-font-specification:'Poggers Bold';text-align:center;text-anchor:middle;fill:#ffffff;fill-opacity:1;stroke:none;stroke-width:0;stroke-dasharray:none">H</tspan></text><rect
         style="display:inline;fill:none;fill-opacity:1;stroke:none;stroke-width:0;stroke-linecap:round;stroke-linejoin:round;stroke-dasharray:none"
         id="rect2046"
         width="512"
         height="512"
         x="0"
         y="0"
         transform="translate(0,-28.899988)" /></g></g></svg>
